<?xml version="1.0" standalone="no"?>
<!DOCTYPE svg PUBLIC "-//W3C//DTD SVG 20010904//EN"
 "http://www.w3.org/TR/2001/REC-SVG-20010904/DTD/svg10.dtd">
<svg version="1.0" xmlns="http://www.w3.org/2000/svg"
 width="650.000000pt" height="651.000000pt" viewBox="0 0 650.000000 651.000000"
 preserveAspectRatio="xMidYMid meet">

<g transform="translate(0.000000,651.000000) scale(0.100000,-0.100000)"
fill="#000000" stroke="none">
<path d="M3030 5869 c-413 -36 -826 -145 -1053 -280 -210 -125 -280 -297 -213
-530 15 -51 63 -170 106 -265 103 -223 134 -302 154 -392 l17 -74 -35 -38
c-46 -51 -52 -91 -32 -199 9 -49 16 -117 16 -151 l0 -62 -48 44 c-101 90 -237
138 -391 138 -213 0 -405 -106 -477 -263 -26 -56 -29 -72 -29 -172 0 -99 3
-116 27 -168 93 -197 370 -319 868 -383 184 -23 195 -37 145 -184 -14 -40 -25
-95 -25 -122 l0 -48 58 0 c74 0 119 24 156 83 34 55 45 150 27 223 -7 25 -10
49 -7 51 8 8 215 40 366 57 193 21 358 33 635 46 127 6 249 12 273 14 37 3 42
1 36 -13 -3 -9 -9 -39 -11 -68 -4 -40 0 -62 16 -97 20 -41 100 -126 119 -126
4 0 4 29 -1 64 -13 82 1 118 51 142 52 25 278 25 376 1 153 -39 264 -117 313
-223 30 -67 32 -125 4 -199 -12 -31 -21 -75 -21 -98 0 -79 22 -116 33 -58 3
16 16 41 29 55 l23 26 96 -9 c294 -28 541 86 647 299 132 263 0 547 -278 600
-92 17 -240 10 -322 -16 -15 -4 -13 3 9 46 34 67 41 145 19 243 -16 69 -16 78
0 123 29 89 93 196 244 414 261 377 315 529 234 669 -34 58 -165 188 -264 262
-368 275 -909 554 -1176 608 -196 39 -472 51 -714 30z m-112 -1694 c547 -53
1121 -196 1595 -399 71 -30 140 -62 153 -71 35 -23 32 -71 -9 -131 -18 -27
-36 -56 -39 -65 -6 -14 -13 -14 -80 3 -301 77 -596 75 -1188 -6 -529 -73 -733
-88 -947 -67 -117 12 -304 50 -343 71 -45 24 -54 152 -25 335 20 123 16 217
-10 283 -10 24 -16 45 -13 47 2 2 71 9 154 14 188 12 546 5 752 -14z"/>
<path d="M2600 1464 c-25 -9 -50 -21 -56 -27 -19 -20 -51 -133 -89 -314 l-35
-172 37 -88 c28 -67 37 -104 38 -152 l2 -65 38 -13 c101 -35 227 -23 315 30
19 11 89 73 155 137 130 127 169 153 230 154 61 1 105 -27 232 -145 161 -151
239 -185 377 -167 95 13 107 23 128 103 52 206 58 394 20 620 -20 116 -13 112
-163 114 -169 2 -273 -51 -460 -235 l-116 -115 -139 127 c-205 187 -271 224
-397 224 -39 -1 -92 -8 -117 -16z"/>
</g>
</svg>
